<?xml version="1.0" ?><!DOCTYPE svg  PUBLIC '-//W3C//DTD SVG 1.1//EN'  'http://www.w3.org/Graphics/SVG/1.1/DTD/svg11.dtd'><svg height="32px" id="Layer_1" style="enable-background:new 0 0 32 32;" version="1.1" viewBox="0 0 32 32" width="32px" xml:space="preserve" xmlns="http://www.w3.org/2000/svg" xmlns:xlink="http://www.w3.org/1999/xlink"><g transform="translate(240 0)"><path d="M-211,4v26h-24c-1.104,0-2-0.895-2-2s0.896-2,2-2h22V0h-22c-2.209,0-4,1.791-4,4v24c0,2.209,1.791,4,4,4h26V4H-211z    M-235,8V2h20v22h-20V8z M-219,6h-12V4h12V6z M-223,10h-8V8h8V10z M-227,14h-4v-2h4V14z"/></g></svg>