<svg xmlns="http://www.w3.org/2000/svg" viewBox="0 0 463 463" width="512" height="512"><g fill="#191919"><path d="M439.5 92h-8.622c-.015-15.242-.026-24.51-.026-24.51-.005-4.138-3.36-7.49-7.5-7.49-110.843 0-176.933 25.047-191.78 31.337C216.712 85.05 150.522 60 39.5 60c-4.14 0-7.495 3.353-7.5 7.49L31.974 92H23.5C10.542 92 0 102.542 0 115.5v264C0 392.458 10.542 403 23.5 403h416c12.958 0 23.5-10.542 23.5-23.5v-264c0-12.958-10.542-23.5-23.5-23.5zm-23.568 264.038c-93.47.95-153.82 19.652-176.932 28.346V104.526c16.004-6.445 77.69-28.42 176.86-29.486.1 90.975.22 246.033.072 280.998zM224 104.468v279.865c-23.245-8.716-83.637-27.35-177.08-28.296-.134-31.924-.047-163.943.046-255.91.017-.207.032-.415.032-.627 0-.203-.015-.403-.03-.602l.025-23.858C146.035 76.1 207.75 97.95 224 104.47zM15 379.5v-264c0-4.687 3.813-8.5 8.5-8.5h8.46c-.028 28.295-.063 68.323-.085 108.37-.02 36.982-.03 73.976-.016 101.743.007 13.89.02 25.473.043 33.593.012 4.073.025 7.277.04 9.47.035 4.672.047 6.42 2.25 8.624 1.407 1.408 3.316 2.2 5.307 2.2 64.093 0 113.21 8.753 145.26 17H23.5c-4.687 0-8.5-3.813-8.5-8.5zm433 0c0 4.687-3.813 8.5-8.5 8.5H278.32c32-8.247 81.04-17 145.032-17 1.99 0 3.9-.792 5.307-2.2 2.2-2.204 2.214-3.952 2.248-8.625.016-2.19.03-5.396.04-9.47.024-8.12.038-19.702.046-33.592.016-27.768.005-64.76-.016-101.742-.023-40.047-.057-80.075-.085-108.37h8.608c4.688 0 8.5 3.813 8.5 8.5v264z"/><path d="M126.49 127.95c25.47 3.46 49.322 8.413 70.895 14.72.703.204 1.41.302 2.107.302 3.246 0 6.24-2.125 7.195-5.397 1.162-3.977-1.12-8.142-5.095-9.304-22.287-6.513-46.876-11.62-73.084-15.183-4.107-.564-7.884 2.317-8.44 6.422s2.317 7.883 6.42 8.44zM71.158 122.992c7.94.364 15.924.876 23.727 1.52.21.02.42.026.626.026 3.863 0 7.144-2.965 7.467-6.883.34-4.128-2.73-7.75-6.857-8.092-7.984-.66-16.15-1.183-24.274-1.556-4.123-.162-7.646 3.01-7.836 7.148-.19 4.14 3.01 7.648 7.148 7.837zM201.594 192.27c-15.13-4.422-31.535-8.24-48.763-11.348-4.078-.735-7.977 1.974-8.71 6.05-.736 4.076 1.972 7.977 6.048 8.712 16.71 3.014 32.595 6.71 47.217 10.983.703.206 1.41.304 2.108.304 3.246 0 6.238-2.124 7.195-5.396 1.162-3.975-1.12-8.14-5.094-9.303zM71.158 186.992c16.106.74 32.065 2.065 47.434 3.94.308.037.615.056.917.056 3.736 0 6.97-2.79 7.435-6.593.5-4.11-2.425-7.852-6.537-8.353-15.74-1.92-32.08-3.278-48.563-4.035-4.123-.163-7.646 3.01-7.836 7.148-.19 4.14 3.01 7.647 7.148 7.837zM197.385 174.67c.702.204 1.41.302 2.107.302 3.246 0 6.24-2.124 7.195-5.397 1.162-3.976-1.12-8.14-5.095-9.304-5.233-1.528-10.708-3.01-16.27-4.4-4.015-1-8.09 1.44-9.096 5.46-1.004 4.018 1.44 8.09 5.458 9.094 5.374 1.342 10.656 2.77 15.7 4.245zM71.158 154.992c27.42 1.258 54.004 4.183 79.01 8.692.45.08.9.12 1.34.12 3.56 0 6.72-2.544 7.373-6.17.736-4.076-1.972-7.977-6.05-8.712-25.655-4.627-52.903-7.627-80.984-8.915-4.123-.172-7.646 3.01-7.836 7.148-.19 4.14 3.01 7.648 7.148 7.837zM201.594 224.27c-24.638-7.2-51.955-12.66-81.19-16.228-4.11-.505-7.853 2.424-8.354 6.536-.5 4.11 2.425 7.852 6.537 8.353 28.43 3.47 54.94 8.765 78.8 15.74.702.204 1.41.302 2.107.302 3.246 0 6.24-2.125 7.195-5.397 1.16-3.976-1.12-8.14-5.096-9.304zM71.158 218.992c5.3.243 10.62.552 15.812.915.18.013.356.02.532.02 3.903 0 7.197-3.023 7.474-6.977.29-4.132-2.825-7.717-6.957-8.006-5.314-.372-10.755-.688-16.173-.937-4.15-.174-7.646 3.01-7.836 7.148s3.01 7.647 7.148 7.837zM201.594 288.27c-15.13-4.422-31.535-8.24-48.763-11.348-4.078-.734-7.977 1.974-8.71 6.05-.736 4.076 1.972 7.977 6.048 8.712 16.71 3.014 32.595 6.71 47.217 10.983.703.206 1.41.304 2.108.304 3.246 0 6.238-2.124 7.195-5.396 1.162-3.975-1.12-8.14-5.094-9.303zM71.158 282.992c16.106.74 32.065 2.065 47.434 3.94.308.037.615.056.917.056 3.736 0 6.97-2.79 7.435-6.593.5-4.11-2.425-7.852-6.537-8.353-15.74-1.92-32.08-3.278-48.563-4.035-4.123-.155-7.646 3.01-7.836 7.148-.19 4.14 3.01 7.647 7.148 7.837zM201.593 320.27c-24.64-7.2-51.954-12.66-81.184-16.227-4.114-.51-7.852 2.425-8.354 6.536-.5 4.11 2.425 7.85 6.537 8.352 28.423 3.47 54.933 8.763 78.792 15.737.703.204 1.41.302 2.107.302 3.246 0 6.24-2.125 7.195-5.397 1.163-3.977-1.118-8.142-5.094-9.304zM71.158 314.992c5.275.242 10.6.55 15.823.916.18.013.356.02.533.02 3.903 0 7.197-3.023 7.474-6.978.29-4.132-2.826-7.716-6.958-8.005-5.344-.374-10.79-.69-16.183-.938-4.124-.147-7.646 3.01-7.836 7.148-.19 4.14 3.01 7.647 7.148 7.837zM197.385 270.67c.702.204 1.41.302 2.107.302 3.246 0 6.24-2.124 7.195-5.397 1.162-3.976-1.12-8.14-5.095-9.304-5.233-1.528-10.708-3.01-16.27-4.4-4.015-1.002-8.09 1.44-9.096 5.46-1.004 4.018 1.44 8.09 5.458 9.094 5.374 1.342 10.656 2.77 15.7 4.245zM71.158 250.992c27.42 1.258 54.004 4.183 79.01 8.692.45.08.9.12 1.34.12 3.56 0 6.72-2.544 7.373-6.17.736-4.076-1.972-7.977-6.05-8.712-25.655-4.627-52.903-7.627-80.984-8.915-4.123-.164-7.646 3.01-7.836 7.148-.19 4.14 3.01 7.648 7.148 7.837zM263.497 142.972c.696 0 1.405-.098 2.107-.303 21.573-6.307 45.426-11.26 70.896-14.72 4.104-.558 6.98-4.337 6.422-8.44-.558-4.105-4.334-6.98-8.44-6.423-26.21 3.562-50.798 8.67-73.085 15.184-3.976 1.163-6.257 5.328-5.095 9.305.956 3.273 3.948 5.397 7.195 5.397zM367.48 124.538c.206 0 .415-.008.625-.025 7.802-.645 15.785-1.156 23.727-1.52 4.138-.19 7.338-3.7 7.148-7.837-.19-4.138-3.695-7.322-7.836-7.148-8.124.373-16.29.896-24.275 1.556-4.13.34-7.2 3.964-6.858 8.092.324 3.918 3.604 6.882 7.467 6.882zM263.497 206.972c.697 0 1.405-.098 2.108-.303 14.623-4.276 30.51-7.972 47.217-10.985 4.076-.735 6.785-4.636 6.05-8.712-.736-4.077-4.637-6.783-8.713-6.05-17.228 3.107-33.634 6.926-48.764 11.348-3.976 1.164-6.256 5.33-5.094 9.305.956 3.273 3.948 5.397 7.195 5.397zM391.144 172.008c-16.483.757-32.822 2.114-48.563 4.035-4.11.5-7.037 4.24-6.536 8.353.464 3.804 3.698 6.593 7.436 6.593.303 0 .61-.02.917-.058 15.368-1.874 31.327-3.2 47.434-3.94 4.14-.19 7.34-3.697 7.15-7.835-.19-4.14-3.713-7.33-7.836-7.15zM263.497 174.972c.697 0 1.405-.098 2.107-.303 5.042-1.476 10.324-2.903 15.7-4.247 4.02-1.005 6.462-5.076 5.458-9.095-1.004-4.02-5.08-6.464-9.095-5.458-5.566 1.392-11.04 2.872-16.27 4.4-3.977 1.163-6.258 5.328-5.096 9.304.958 3.274 3.95 5.398 7.197 5.398zM391.144 140.008c-28.08 1.288-55.33 4.288-80.986 8.915-4.077.735-6.785 4.636-6.05 8.712.654 3.627 3.813 6.17 7.372 6.17.442 0 .89-.04 1.34-.12 25.007-4.51 51.59-7.435 79.01-8.692 4.14-.19 7.34-3.698 7.15-7.836-.19-4.138-3.695-7.335-7.836-7.15zM263.497 238.972c.697 0 1.405-.098 2.108-.303 23.858-6.976 50.37-12.27 78.8-15.74 4.11-.5 7.037-4.24 6.536-8.352-.5-4.112-4.242-7.044-8.352-6.536-29.236 3.566-56.553 9.027-81.19 16.23-3.977 1.162-6.257 5.327-5.095 9.303.955 3.273 3.947 5.397 7.194 5.397zM391.144 204.008c-5.417.25-10.858.563-16.173.937-4.13.29-7.246 3.874-6.956 8.006.277 3.954 3.57 6.977 7.474 6.977.176 0 .354-.006.532-.02 5.195-.363 10.515-.67 15.813-.914 4.138-.19 7.338-3.698 7.148-7.836-.19-4.14-3.71-7.335-7.836-7.15zM256.3 297.574c.958 3.273 3.95 5.397 7.196 5.397.697 0 1.405-.097 2.108-.302 14.623-4.275 30.51-7.97 47.217-10.984 4.077-.735 6.786-4.636 6.05-8.712-.735-4.077-4.636-6.782-8.712-6.05-17.227 3.107-33.633 6.926-48.763 11.348-3.975 1.164-6.256 5.33-5.094 9.304zM391.144 268.008c-16.483.757-32.822 2.114-48.563 4.035-4.11.5-7.037 4.24-6.536 8.353.464 3.804 3.698 6.593 7.436 6.593.303 0 .61-.02.917-.058 15.368-1.874 31.327-3.2 47.434-3.94 4.14-.19 7.34-3.697 7.15-7.835-.19-4.138-3.713-7.315-7.836-7.15zM342.58 304.043c-29.23 3.566-56.544 9.026-81.184 16.228-3.976 1.163-6.257 5.328-5.095 9.305.958 3.273 3.95 5.397 7.196 5.397.697 0 1.405-.098 2.107-.303 23.86-6.976 50.37-12.27 78.792-15.738 4.112-.5 7.038-4.24 6.537-8.353-.5-4.113-4.244-7.048-8.352-6.537zM391.144 300.008c-5.394.248-10.838.563-16.183.938-4.13.29-7.246 3.873-6.957 8.005.277 3.955 3.57 6.978 7.474 6.978.176 0 .354-.006.532-.02 5.225-.364 10.548-.673 15.822-.915 4.138-.19 7.338-3.698 7.148-7.836-.19-4.138-3.713-7.31-7.836-7.15zM263.497 270.972c.697 0 1.405-.098 2.107-.303 5.042-1.476 10.324-2.903 15.7-4.247 4.02-1.005 6.462-5.076 5.458-9.095-1.004-4.02-5.08-6.46-9.095-5.458-5.566 1.392-11.04 2.872-16.27 4.4-3.977 1.163-6.258 5.328-5.096 9.304.958 3.274 3.95 5.398 7.197 5.398zM391.144 236.008c-28.08 1.288-55.33 4.288-80.986 8.915-4.077.735-6.785 4.636-6.05 8.712.654 3.627 3.813 6.17 7.372 6.17.442 0 .89-.04 1.34-.12 25.007-4.51 51.59-7.435 79.01-8.692 4.14-.19 7.34-3.698 7.15-7.836-.19-4.138-3.695-7.32-7.836-7.15z"/></g></svg>
