<svg xmlns="http://www.w3.org/2000/svg" viewBox="0 0 423.753 423.753" width="512" height="512"><path d="M373.392 181.353c-1.2-3.2-4-5.2-7.6-5.2h-122.8l105.6-163.6c2-3.2 1.6-7.6-1.2-10.4s-7.2-2.8-10.4-.4l-284 224c-2.8 2-3.6 5.6-2.8 8.8.8 3.2 4 5.2 7.6 5.2h117.6l-108.4 171.6c-2 3.2-1.6 7.6 1.6 10.4 1.6 1.2 3.6 2 5.2 2s3.6-.4 4.8-1.6l292-232c2.8-2 4-5.6 2.8-8.8zm-267.6 199.2l90.8-144.4c1.6-2.4 1.6-5.6.4-8-1.6-2.4-4-4-7.2-4h-108.8l228-180-87.6 135.6c-1.6 2.4-1.6 5.6-.4 8 1.2 2.4 4 4 7.2 4h114.8l-237.2 188.8z" fill="#191919"/></svg>