<svg xmlns="http://www.w3.org/2000/svg" viewBox="0 0 27.269 27.269" width="512" height="512"><path d="M25.322 1.947H1.95c-1.08 0-1.95.87-1.95 1.95v19.478c0 1.074.87 1.947 1.95 1.947H25.32c1.07 0 1.947-.873 1.947-1.947V3.898c0-1.08-.877-1.95-1.948-1.95zM9.312 3.41c.537 0 .973.436.973.975 0 .537-.436.973-.973.973-.54 0-.975-.436-.975-.973 0-.54.436-.975.975-.975zm-2.982 0c.537 0 .975.436.975.975 0 .537-.438.973-.975.973-.54 0-.975-.436-.975-.973 0-.54.436-.975.975-.975zm-2.924 0c.54 0 .975.436.975.975 0 .537-.433.973-.974.973-.535 0-.97-.436-.97-.973 0-.54.435-.975.97-.975zm21.916 19.965H1.95V6.838H25.32v16.537z" fill="#191919"/><path d="M14.797 15.566L5.844 20.16v-1.332l7.602-3.78v-.04l-7.602-3.782V9.894l8.953 4.572v1.1zM21.422 14.334v1.232h-4.764v-1.232h4.764z" fill="#191919"/></svg>